<svg xmlns="http://www.w3.org/2000/svg" width="340" height="200" viewBox="0 0 340 200" font-family="'Segoe UI', Ubuntu, Sans-Serif">
  <rect x="0.5" y="0.5" width="339" height="199" rx="6" fill="#0d1117" stroke="#2e343b" stroke-opacity="1.00"/>
  <text x="20" y="30" font-size="15" font-weight="600" fill="#0366d6">Most Commit Language (last year)</text>
  <rect x="20" y="47" width="10" height="10" fill="#00ADD8" stroke="#0d1117" stroke-width="1"/>
  <text x="36" y="55" font-size="11" fill="#77909c">Go 37.83%</text>
  <rect x="20" y="67" width="10" height="10" fill="#3572A5" stroke="#0d1117" stroke-width="1"/>
  <text x="36" y="75" font-size="11" fill="#77909c">Python 29.19%</text>
  <rect x="20" y="87" width="10" height="10" fill="#3178c6" stroke="#0d1117" stroke-width="1"/>
  <text x="36" y="95" font-size="11" fill="#77909c">TypeScript 17.21%</text>
  <rect x="20" y="107" width="10" height="10" fill="#00B4AB" stroke="#0d1117" stroke-width="1"/>
  <text x="36" y="115" font-size="11" fill="#77909c">Dart 7.99%</text>
  <rect x="20" y="127" width="10" height="10" fill="#427819" stroke="#0d1117" stroke-width="1"/>
  <text x="36" y="135" font-size="11" fill="#77909c">Makefile 3.14%</text>
  <rect x="20" y="147" width="10" height="10" fill="#89e051" stroke="#0d1117" stroke-width="1"/>
  <text x="36" y="155" font-size="11" fill="#77909c">Shell 1.33%</text>
  <rect x="20" y="167" width="10" height="10" fill="#40c463" stroke="#0d1117" stroke-width="1"/>
  <text x="36" y="175" font-size="11" fill="#77909c">Other 3.31%</text>
  <path d="M250.00,55.00 A55.00,55.00 0 0 1 288.09,149.68 L270.77,131.64 A30.00,30.00 0 0 0 250.00,80.00 Z" fill="#00ADD8" stroke="#0d1117" stroke-width="1.5"/>
  <path d="M288.09,149.68 A55.00,55.00 0 0 1 201.78,136.46 L223.70,124.43 A30.00,30.00 0 0 0 270.77,131.64 Z" fill="#3572A5" stroke="#0d1117" stroke-width="1.5"/>
  <path d="M201.78,136.46 A55.00,55.00 0 0 1 203.99,79.87 L224.90,93.57 A30.00,30.00 0 0 0 223.70,124.43 Z" fill="#3178c6" stroke="#0d1117" stroke-width="1.5"/>
  <path d="M203.99,79.87 A55.00,55.00 0 0 1 224.16,61.45 L235.91,83.52 A30.00,30.00 0 0 0 224.90,93.57 Z" fill="#00B4AB" stroke="#0d1117" stroke-width="1.5"/>
  <path d="M224.16,61.45 A55.00,55.00 0 0 1 234.18,57.32 L241.37,81.27 A30.00,30.00 0 0 0 235.91,83.52 Z" fill="#427819" stroke="#0d1117" stroke-width="1.5"/>
  <path d="M234.18,57.32 A55.00,55.00 0 0 1 238.64,56.19 L243.80,80.65 A30.00,30.00 0 0 0 241.37,81.27 Z" fill="#89e051" stroke="#0d1117" stroke-width="1.5"/>
  <path d="M238.64,56.19 A55.00,55.00 0 0 1 250.00,55.00 L250.00,80.00 A30.00,30.00 0 0 0 243.80,80.65 Z" fill="#40c463" stroke="#0d1117" stroke-width="1.5"/>
</svg>